<svg xmlns="http://www.w3.org/2000/svg" xmlns:xlink="http://www.w3.org/1999/xlink" id="Layer_1" x="0px" y="0px" viewBox="0 0 500 500" style="enable-background:new 0 0 500 500;" xml:space="preserve"><style type="text/css">	.st0{fill:#FFFFFF;}	.st1{fill:#641932;}	.st2{fill:#15254B;}</style><g>	<circle class="st0" cx="248.95" cy="254.13" r="166.84"></circle>	<path class="st1" d="M249.44,13.77c-130.62,0-236.51,105.89-236.51,236.51s105.89,236.51,236.51,236.51  c130.62,0,236.51-105.89,236.51-236.51S380.06,13.77,249.44,13.77z M249.06,411.79c-89.15,0-161.41-72.27-161.41-161.41  S159.91,88.96,249.06,88.96s161.41,72.27,161.41,161.41S338.2,411.79,249.06,411.79z"></path>	<g>		<g>			<g>				<g>					<path class="st0" d="M249.44,490.97C116.72,490.97,8.75,383,8.75,250.28S116.72,9.59,249.44,9.59s240.69,107.97,240.69,240.69      S382.15,490.97,249.44,490.97z M249.44,21.22c-126.3,0-229.06,102.76-229.06,229.06s102.75,229.06,229.06,229.06      S478.5,376.58,478.5,250.28S375.74,21.22,249.44,21.22z"></path>					<path class="st2" d="M249.44,493.51C115.32,493.51,6.21,384.4,6.21,250.28S115.32,7.05,249.44,7.05      s243.23,109.11,243.23,243.23S383.55,493.51,249.44,493.51z M249.44,12.13c-131.32,0-238.15,106.83-238.15,238.15      s106.83,238.15,238.15,238.15S487.59,381.6,487.59,250.28S380.75,12.13,249.44,12.13z M249.44,481.88      c-127.7,0-231.6-103.89-231.6-231.6c0-127.7,103.89-231.6,231.6-231.6c127.7,0,231.6,103.9,231.6,231.6      C481.04,377.98,377.14,481.88,249.44,481.88z M249.44,23.76c-124.9,0-226.52,101.62-226.52,226.52      c0,124.9,101.62,226.52,226.52,226.52c124.9,0,226.52-101.61,226.52-226.52C475.96,125.38,374.34,23.76,249.44,23.76z"></path>				</g>			</g>			<g>				<g>					<path class="st2" d="M249.44,416.86c-91.85,0-166.58-74.73-166.58-166.58S157.58,83.7,249.44,83.7s166.58,74.73,166.58,166.58      S341.29,416.86,249.44,416.86z M249.44,96.38c-84.86,0-153.9,69.04-153.9,153.9s69.04,153.9,153.9,153.9      c84.86,0,153.9-69.04,153.9-153.9S334.3,96.38,249.44,96.38z"></path>					<path class="st2" d="M249.44,418.56c-92.79,0-168.27-75.49-168.27-168.27C81.16,157.49,156.65,82,249.44,82      c92.79,0,168.28,75.49,168.28,168.28C417.71,343.07,342.22,418.56,249.44,418.56z M249.44,85.39      c-90.92,0-164.89,73.97-164.89,164.89c0,90.92,73.97,164.89,164.89,164.89c90.92,0,164.89-73.97,164.89-164.89      C414.33,159.36,340.36,85.39,249.44,85.39z M249.44,405.88c-85.8,0-155.6-69.8-155.6-155.6s69.8-155.6,155.6-155.6      s155.6,69.8,155.6,155.6S335.23,405.88,249.44,405.88z M249.44,98.07c-83.93,0-152.21,68.28-152.21,152.21      c0,83.93,68.28,152.21,152.21,152.21c83.93,0,152.21-68.28,152.21-152.21C401.65,166.35,333.37,98.07,249.44,98.07z"></path>				</g>				<path class="st0" d="M249.44,413.26c-89.87,0-162.98-73.11-162.98-162.98c0-89.87,73.11-162.98,162.98-162.98     s162.98,73.11,162.98,162.98C412.42,340.15,339.31,413.26,249.44,413.26z M249.44,92.78c-86.85,0-157.5,70.66-157.5,157.5     s70.66,157.5,157.5,157.5s157.5-70.66,157.5-157.5S336.29,92.78,249.44,92.78z"></path>			</g>			<g>				<path class="st0" d="M61.36,302.88c0.73-2.89,2.52-4.81,5.38-5.76c2.52-0.84,4.87-0.62,7.05,0.65c2.18,1.27,3.71,3.24,4.6,5.9     l4.07,12.22l-29.1,9.7l-3.8-11.39c-0.87-2.6-0.83-5.04,0.12-7.32c0.95-2.27,2.66-3.82,5.13-4.64     C57.15,301.47,59.33,301.68,61.36,302.88z M55.81,312.12l1.58,4.74l5.15-1.72l-1.58-4.74c-0.25-0.75-0.7-1.28-1.34-1.59     c-0.64-0.31-1.34-0.34-2.09-0.09c-0.75,0.25-1.29,0.69-1.61,1.32C55.6,310.68,55.56,311.37,55.81,312.12z M72.16,305.75     c-0.28-0.83-0.75-1.41-1.43-1.74c-0.68-0.33-1.43-0.35-2.27-0.08c-0.83,0.28-1.42,0.75-1.77,1.42c-0.35,0.67-0.38,1.42-0.1,2.25     l1.86,5.57l5.57-1.86L72.16,305.75z"></path>				<path class="st0" d="M64.94,274.5l-1.51-12.17l6.7-0.83l2.38,19.13l-30.44,3.79l-2.35-18.91l6.7-0.83l1.49,11.96l5.04-0.63     l-1.35-10.87l6.61-0.82l1.35,10.87L64.94,274.5z"></path>				<path class="st0" d="M63.53,239.64l0.62-10.94l6.74,0.38l-1.02,17.94l-30.62-1.75l0.4-7L63.53,239.64z"></path>				<path class="st0" d="M68.11,207.26l2.54-10.66l6.56,1.56l-4.16,17.48l-29.84-7.11l1.62-6.82L68.11,207.26z"></path>				<path class="st0" d="M83.35,181.51l-31.86-3.85l3.11-6.99l23.48,2.98l-17.94-15.4l2.87-6.44l24.2,21.05L83.35,181.51z"></path>				<path class="st0" d="M73.1,135.48l3.92-5.81l25.42,17.17l-3.92,5.81L73.1,135.48z"></path>				<path class="st0" d="M111.91,124.4l7.44-8.04l4.95,4.58l-12.2,13.18l-22.51-20.84l4.76-5.14L111.91,124.4z"></path>				<path class="st0" d="M136.03,102.34l8.73-6.61l4.07,5.38l-14.32,10.84L116,87.5l5.59-4.23L136.03,102.34z"></path>				<path class="st0" d="M163.68,84.83l10.96-5.5l3.03,6.03L160.44,94l-13.76-27.41l17.04-8.55l3.03,6.03l-10.77,5.41l2.28,4.54     l9.79-4.91l2.99,5.95l-9.79,4.91L163.68,84.83z"></path>				<path class="st0" d="M224.44,41.75l6.95-0.96l4.18,30.38l-6.95,0.96l-1.66-12.07l-9.55,1.31l1.66,12.07l-6.95,0.95l-4.18-30.38     l6.95-0.96l1.6,11.63l9.55-1.31L224.44,41.75z"></path>				<path class="st0" d="M277.22,69.05c-3.37,2.76-7.27,3.93-11.69,3.5c-4.42-0.42-8.03-2.31-10.81-5.66     c-2.79-3.35-3.97-7.26-3.54-11.74c0.43-4.48,2.33-8.1,5.71-10.85c3.37-2.76,7.27-3.93,11.69-3.5c4.42,0.42,8.03,2.31,10.81,5.66     c2.79,3.35,3.97,7.26,3.54,11.74C282.49,62.67,280.59,66.29,277.22,69.05z M260.07,62.61c1.54,1.85,3.57,2.9,6.1,3.14     c2.53,0.24,4.73-0.4,6.59-1.92c1.86-1.52,2.92-3.62,3.18-6.3c0.26-2.67-0.39-4.94-1.92-6.79c-1.54-1.85-3.57-2.89-6.1-3.14     c-2.53-0.24-4.73,0.4-6.59,1.92c-1.86,1.52-2.92,3.62-3.18,6.3C257.89,58.5,258.53,60.76,260.07,62.61z"></path>				<path class="st0" d="M308.76,82.25c-4.33-1.52-7.41-4.22-9.25-8.11c-1.84-3.88-2.01-7.96-0.51-12.23     c1.5-4.27,4.19-7.35,8.05-9.22c3.86-1.88,7.96-2.06,12.29-0.53c2.59,0.91,4.78,2.35,6.56,4.33c1.78,1.97,2.94,4.22,3.49,6.73     l-6.87,1.3c-0.24-1.35-0.84-2.55-1.81-3.58c-0.97-1.04-2.18-1.81-3.64-2.33c-2.56-0.9-4.88-0.84-6.97,0.2     c-2.08,1.03-3.58,2.85-4.49,5.44c-0.91,2.59-0.88,4.94,0.1,7.05c0.98,2.11,2.75,3.61,5.31,4.51c1.46,0.51,2.9,0.66,4.32,0.45     c1.42-0.21,2.63-0.76,3.62-1.65l4.54,5.31c-1.97,1.63-4.26,2.66-6.89,3.08C313.99,83.42,311.37,83.17,308.76,82.25z"></path>				<path class="st0" d="M354.41,105.41l-6.76-4.23l-0.81-17.22l-7.51,12.01l-5.94-3.72l16.26-26.01l5.94,3.72l-7.06,11.29     l15.01-6.32l6.76,4.23l-16.69,7.19L354.41,105.41z"></path>				<path class="st0" d="M374.18,113.7l8.91,8.44l-4.64,4.9l-14-13.26l21.09-22.27l13.84,13.11l-4.64,4.9l-8.75-8.28l-3.5,3.69     l7.95,7.53l-4.58,4.84l-7.95-7.53L374.18,113.7z"></path>				<path class="st0" d="M427.35,140.6l-21.37,2.45l-9.64,6.78l-4.03-5.73l9.64-6.78l9.52-19.29l4.59,6.52l-6.29,11.55l12.99-2.02     L427.35,140.6z"></path>				<path class="st0" d="M420.25,204.05c-1.21-4.42-0.74-8.5,1.41-12.22c2.15-3.72,5.41-6.17,9.78-7.37s8.42-0.73,12.16,1.38     c3.74,2.11,6.21,5.38,7.42,9.81c0.72,2.65,0.78,5.27,0.17,7.86c-0.61,2.59-1.8,4.82-3.56,6.69l-4.97-4.91     c0.98-0.96,1.62-2.14,1.92-3.52c0.3-1.39,0.25-2.82-0.16-4.32c-0.71-2.62-2.09-4.49-4.12-5.62c-2.03-1.13-4.37-1.33-7.02-0.61     c-2.65,0.72-4.56,2.08-5.74,4.09c-1.18,2-1.41,4.31-0.7,6.93c0.41,1.49,1.1,2.77,2.08,3.81c0.98,1.05,2.12,1.73,3.42,2.04     l-1.79,6.76c-2.46-0.69-4.61-2-6.45-3.92C422.26,209.02,420.98,206.72,420.25,204.05z"></path>				<path class="st0" d="M433.02,236.71l0.69,10.93l-6.73,0.43l-1.14-17.93l30.61-1.94l0.44,7L433.02,236.71z"></path>				<path class="st0" d="M426.33,281.38c-1.6-2.44-2.17-5.38-1.73-8.8c0.44-3.42,1.75-6.11,3.92-8.06c2.17-1.96,4.85-2.73,8.03-2.31     l20.59,2.68l-0.9,6.95l-19.99-2.6c-2.84-0.37-4.46,1.04-4.88,4.23c-0.41,3.19,0.8,4.97,3.64,5.33l19.99,2.6l-0.9,6.95     l-20.6-2.67C430.32,285.26,427.93,283.83,426.33,281.38z"></path>				<path class="st0" d="M428.59,322.55c-2.36,1.83-4.95,2.24-7.79,1.23c-2.5-0.89-4.22-2.51-5.15-4.86     c-0.93-2.35-0.93-4.84,0.01-7.48l4.31-12.14l28.9,10.28l-4.02,11.31c-0.92,2.59-2.45,4.48-4.6,5.69c-2.15,1.2-4.45,1.37-6.9,0.5     C431.04,326.26,429.45,324.75,428.59,322.55z M421.85,313.64c-0.29,0.83-0.27,1.58,0.06,2.25c0.33,0.68,0.91,1.16,1.74,1.45     c0.83,0.29,1.58,0.28,2.27-0.03c0.69-0.31,1.18-0.88,1.47-1.71l1.97-5.53l-5.53-1.97L421.85,313.64z M438.66,318.69l1.67-4.71     l-5.12-1.82l-1.67,4.71c-0.26,0.74-0.24,1.43,0.08,2.07c0.32,0.64,0.85,1.09,1.59,1.35c0.74,0.26,1.44,0.25,2.09-0.05     C437.94,319.95,438.39,319.43,438.66,318.69z"></path>			</g>			<g>				<path class="st2" d="M115.03,240.6h3.83v19.17h-4.38v-14.54l-3.4,0.93l-1.07-3.75L115.03,240.6z"></path>				<path class="st2" d="M135.57,246.98c0,1.48-0.37,2.78-1.12,3.89l-5.86,8.9h-5.04l4.16-6.05c-1.9-0.15-3.44-0.84-4.61-2.08     c-1.18-1.24-1.77-2.79-1.77-4.66c0-1.99,0.66-3.61,1.99-4.87c1.32-1.26,3.03-1.89,5.13-1.89c2.12,0,3.83,0.63,5.15,1.89     S135.57,244.99,135.57,246.98z M126.51,245.05c-0.53,0.48-0.79,1.13-0.79,1.93s0.26,1.45,0.79,1.93     c0.53,0.48,1.18,0.73,1.94,0.73c0.77,0,1.41-0.24,1.94-0.71s0.79-1.12,0.79-1.94c0-0.82-0.26-1.47-0.79-1.94     c-0.53-0.47-1.18-0.71-1.94-0.71C127.68,244.32,127.04,244.56,126.51,245.05z"></path>			</g>			<g>				<path class="st2" d="M373.15,252.65v4.05h-1.92v3.07h-4.44v-3.07h-8.71v-4.05l6.11-12.05h4.71l-6.11,12.05h4v-4.11h4.44v4.11     H373.15z"></path>				<path class="st2" d="M381.22,247.33c1.88,0,3.45,0.56,4.7,1.68c1.25,1.12,1.88,2.7,1.88,4.72c0,2.01-0.68,3.58-2.03,4.71     c-1.35,1.13-3,1.7-4.96,1.7c-1.59,0-2.99-0.34-4.19-1.03c-1.2-0.68-2.09-1.71-2.66-3.08l3.78-2.19c0.47,1.35,1.5,2.03,3.07,2.03     c0.86,0,1.51-0.2,1.94-0.6c0.44-0.4,0.66-0.91,0.66-1.53c0-0.62-0.21-1.13-0.63-1.53c-0.42-0.4-1.03-0.6-1.83-0.6h-6l0.79-11.01     h11.09v4.11h-6.98l-0.19,2.63H381.22z"></path>			</g>			<g>				<g id="XMLID_36_">					<g>						<path class="st0" d="M211.66,427.51c1.07-1.93,0.38-4.36-1.55-5.43c-1.93-1.07-4.36-0.38-5.43,1.55       c-0.05,0.1-0.1,0.2-0.15,0.29c-6.79-2.03-9.33,3.62-12.82,8.7c-3.53,5.15-8.17,6.9-9.32,7.27c0,0-0.01,0-0.02,0.01       c-0.04,0.01-0.08,0.02-0.11,0.03c-0.01,0.01-0.03,0.01-0.04,0.01c-0.47,0.16-0.82,0.42-1.01,0.77       c-1.25,2.24,4.07,7.59,11.87,11.93c7.8,4.35,15.14,6.05,16.39,3.81c0.18-0.32,0.26-0.72,0.14-1.15c0,0,0,0,0,0       c-0.01-0.02-0.05-0.16-0.1-0.4c0,0,0,0,0,0c-0.32-1.38-1.11-6.12,1.32-11.61c2.49-5.64,5.95-10.78,0.65-15.48       C211.54,427.7,211.6,427.61,211.66,427.51z M206.99,424.46c0.42-0.76,1.37-1.03,2.13-0.61c0.76,0.42,1.03,1.37,0.61,2.13       c-0.07,0.12-0.15,0.22-0.24,0.32c-0.4-0.25-0.83-0.51-1.29-0.76l-0.01,0c-0.46-0.26-0.91-0.5-1.35-0.71       C206.88,424.7,206.92,424.58,206.99,424.46z M207.33,455.37c-0.2,0.37-1.48,0.68-4.17,0.06c-2.73-0.63-6.07-2.01-9.42-3.88       c-3.35-1.87-6.28-3.98-8.25-5.97c-1.95-1.96-2.35-3.21-2.15-3.58c0.2-0.37,1.48-0.68,4.17-0.06c1.63,0.38,3.47,1.02,5.41,1.87       c-0.93,2.1-0.12,4.59,1.92,5.73c2.04,1.14,4.59,0.51,5.88-1.38c1.75,1.2,3.28,2.44,4.46,3.63       C207.13,453.75,207.53,455,207.33,455.37z M210.02,440.34c-0.32,0.68-0.65,1.39-0.97,2.1c-1.28,2.9-1.77,5.65-1.86,7.84       c-0.01,0.11-0.01,0.22-0.01,0.33c0,0.07,0,0.15,0,0.22c-0.36-0.55-1.23-1.36-2.32-2.26c0,0-0.01,0-0.01-0.01       c-1.04-0.83-2.17-1.65-3.37-2.44c-1.14-0.75-2.33-1.48-3.53-2.15c-1.21-0.67-2.46-1.31-3.7-1.88       c-2.65-1.22-5.28-2.17-7.53-2.64c-0.1-0.02-0.2-0.04-0.3-0.06c0.13,0,0.27,0,0.41,0c2.28,0.03,5.34,0.84,8.37,2.14       c0.54,0.23,1.08,0.48,1.61,0.74c1.82,0.89,3.24,1.52,4.45,1.89c2,0.61,3.42,0.51,5.05-0.29c0.99-0.48,2.49-3.93,4.26-7.44       c1.75-3.45,0.17-7.01,0.12-7.12C213.55,432.33,212.34,435.39,210.02,440.34z"></path>					</g>				</g>				<g id="XMLID_31_">					<g>						<path class="st0" d="M294.03,423.6c-1.09-1.92-3.53-2.59-5.45-1.5c-1.92,1.09-2.59,3.53-1.5,5.45       c0.05,0.1,0.11,0.19,0.17,0.28c-5.25,4.76-1.75,9.86,0.79,15.48c2.57,5.69,1.66,10.57,1.38,11.74c0,0.01,0,0.01,0,0.02       c-0.01,0.04-0.02,0.08-0.03,0.11c0,0.01-0.01,0.03-0.01,0.04c-0.11,0.49-0.07,0.91,0.13,1.26c1.27,2.23,8.6,0.46,16.36-3.96       c7.76-4.42,13.03-9.81,11.76-12.04c-0.18-0.32-0.48-0.6-0.91-0.72c0,0,0,0,0,0c-0.02-0.01-0.16-0.05-0.4-0.12c0,0,0,0,0,0       c-1.35-0.45-5.8-2.22-9.25-7.15c-3.54-5.05-6.13-10.67-12.9-8.58C294.14,423.79,294.09,423.69,294.03,423.6z M289,426       c-0.43-0.75-0.17-1.71,0.59-2.14c0.75-0.43,1.71-0.17,2.14,0.59c0.07,0.12,0.12,0.24,0.15,0.37       c-0.42,0.21-0.86,0.45-1.32,0.71l-0.01,0c-0.47,0.26-0.9,0.52-1.31,0.78C289.16,426.23,289.07,426.12,289,426z M315.61,441.74       c0.21,0.36-0.18,1.62-2.11,3.6c-1.95,2-4.87,4.15-8.2,6.05c-3.33,1.9-6.66,3.3-9.38,3.96c-2.68,0.65-3.97,0.34-4.17-0.02       c-0.21-0.36,0.18-1.62,2.11-3.6c1.17-1.2,2.67-2.44,4.41-3.66c1.31,1.88,3.86,2.48,5.89,1.33c2.03-1.16,2.82-3.66,1.87-5.75       c1.94-0.88,3.78-1.54,5.41-1.93C314.12,441.07,315.4,441.38,315.61,441.74z M304.16,431.65c0.42,0.63,0.85,1.28,1.29,1.92       c1.81,2.59,3.91,4.44,5.74,5.66c0.09,0.06,0.18,0.12,0.27,0.18c0.06,0.04,0.13,0.08,0.19,0.12c-0.66,0.02-1.79,0.34-3.14,0.81       c0,0-0.01,0-0.01,0c-1.25,0.46-2.54,1-3.83,1.62c-1.23,0.58-2.47,1.23-3.67,1.91c-1.2,0.68-2.39,1.42-3.53,2.19       c-2.41,1.63-4.59,3.39-6.16,5.07c-0.07,0.08-0.14,0.15-0.21,0.23c0.07-0.12,0.14-0.23,0.21-0.35       c1.21-1.93,3.49-4.13,6.17-6.05c0.48-0.34,0.97-0.67,1.47-0.99c1.7-1.09,2.98-1.99,3.92-2.83c1.56-1.4,2.2-2.66,2.37-4.46       c0.1-1.1-2.07-4.17-4.15-7.5c-2.04-3.28-5.91-3.78-6.03-3.79C299.13,424.48,301.13,427.1,304.16,431.65z"></path>					</g>				</g>				<g id="XMLID_26_">					<g>						<path class="st0" d="M253.06,429.62c-0.03-2.21-1.84-3.97-4.05-3.94c-2.21,0.03-3.97,1.84-3.94,4.05       c0,0.11,0.01,0.22,0.02,0.33c-6.9,1.63-6.29,7.79-6.78,13.94c-0.49,6.22-3.65,10.06-4.45,10.94c0,0-0.01,0.01-0.01,0.01       c-0.03,0.03-0.05,0.06-0.08,0.08c-0.01,0.01-0.02,0.02-0.03,0.03c-0.33,0.38-0.5,0.77-0.49,1.17       c0.03,2.57,7.31,4.55,16.24,4.43c8.93-0.12,16.15-2.3,16.11-4.87c-0.01-0.37-0.13-0.76-0.45-1.07c0,0,0,0,0,0       c-0.02-0.02-0.12-0.12-0.29-0.3c0,0,0,0,0,0c-0.97-1.04-4.01-4.75-4.65-10.72c-0.66-6.13-0.22-12.31-7.15-13.75       C253.05,429.84,253.06,429.73,253.06,429.62z M247.49,429.3c-0.01-0.87,0.68-1.58,1.55-1.59c0.87-0.01,1.58,0.68,1.59,1.55       c0,0.14-0.02,0.27-0.05,0.4c-0.47-0.02-0.97-0.03-1.5-0.01l-0.01,0c-0.53,0-1.04,0.02-1.52,0.06       C247.51,429.57,247.49,429.44,247.49,429.3z M263.19,455.93c0.01,0.42-0.95,1.33-3.59,2.13c-2.68,0.81-6.26,1.28-10.1,1.33       c-3.83,0.05-7.43-0.32-10.13-1.06c-2.67-0.73-3.64-1.61-3.65-2.03c-0.01-0.42,0.95-1.33,3.59-2.13       c1.6-0.48,3.52-0.85,5.63-1.07c0.24,2.28,2.18,4.04,4.52,4.01c2.34-0.03,4.23-1.85,4.41-4.13c2.12,0.17,4.06,0.48,5.67,0.92       C262.21,454.62,263.19,455.51,263.19,455.93z M258.04,441.56c0.06,0.75,0.13,1.53,0.21,2.3c0.34,3.15,1.28,5.78,2.3,7.73       c0.05,0.1,0.1,0.2,0.15,0.29c0.04,0.07,0.07,0.13,0.11,0.2c-0.59-0.3-1.74-0.56-3.14-0.81c0,0-0.01,0-0.01,0       c-1.31-0.2-2.71-0.35-4.13-0.43c-1.36-0.08-2.76-0.12-4.13-0.1c-1.38,0.02-2.78,0.09-4.15,0.21c-2.9,0.26-5.66,0.76-7.84,1.46       c-0.1,0.03-0.2,0.06-0.3,0.1c0.11-0.07,0.23-0.14,0.35-0.21c1.99-1.11,5.05-1.94,8.32-2.32c0.58-0.07,1.17-0.12,1.76-0.16       c2.02-0.13,3.57-0.3,4.8-0.59c2.04-0.47,3.22-1.27,4.23-2.76c0.62-0.91,0.2-4.65-0.01-8.57c-0.21-3.86-3.35-6.16-3.45-6.23       C257.1,432.85,257.58,436.12,258.04,441.56z"></path>					</g>				</g>			</g>			<g>				<g>					<path class="st0" d="M56.58,340.38c19.11,47.42,66.07,85.14,105.66,101.29C116.82,417.51,79.93,388.57,56.58,340.38z"></path>				</g>				<g>					<path class="st0" d="M62.68,337.29c18.72,46.44,64.71,83.39,103.49,99.21C121.69,412.84,85.55,384.49,62.68,337.29z"></path>				</g>				<g>					<path class="st0" d="M69.4,334.77c18.18,45.11,62.86,81.01,100.53,96.37C126.72,408.15,91.61,380.62,69.4,334.77z"></path>				</g>				<g>					<path class="st0" d="M76.68,332.7c17.62,43.72,60.92,78.51,97.43,93.4C132.22,403.82,98.2,377.13,76.68,332.7z"></path>				</g>				<g>					<path class="st0" d="M83.72,330.25c17.14,42.54,59.27,76.38,94.78,90.86C137.76,399.44,104.66,373.48,83.72,330.25z"></path>				</g>				<g>					<path class="st0" d="M90.77,328.13c16.56,41.07,57.23,73.75,91.53,87.74C142.96,394.94,110.99,369.87,90.77,328.13z"></path>				</g>			</g>			<g>				<g>					<path class="st0" d="M440.71,341.75c-19.11,47.42-66.07,85.14-105.66,101.29C380.47,418.88,417.36,389.94,440.71,341.75z"></path>				</g>				<g>					<path class="st0" d="M434.61,338.66c-18.72,46.44-64.71,83.39-103.49,99.21C375.6,414.21,411.74,385.86,434.61,338.66z"></path>				</g>				<g>					<path class="st0" d="M427.89,336.14c-18.18,45.11-62.86,81.01-100.53,96.37C370.57,409.52,405.68,381.99,427.89,336.14z"></path>				</g>				<g>					<path class="st0" d="M420.62,334.06c-17.62,43.72-60.92,78.51-97.43,93.4C365.07,405.19,399.09,378.5,420.62,334.06z"></path>				</g>				<g>					<path class="st0" d="M413.57,331.62c-17.14,42.54-59.27,76.38-94.78,90.86C359.53,400.81,392.63,374.85,413.57,331.62z"></path>				</g>				<g>					<path class="st0" d="M406.52,329.49c-16.56,41.07-57.23,73.75-91.53,87.74C354.33,396.31,386.3,371.24,406.52,329.49z"></path>				</g>			</g>		</g>		<g>			<path class="st2" d="M207.81,170.86c0.07-2.95,2.48-5.33,5.45-5.33l77.64,0v0h-5.45c2.97,0,5.38,2.38,5.45,5.33v54.37h16.66    v-59.7h0l-0.08-0.08h0.08c-0.06-9.16-7.49-16.56-16.65-16.58l0,0h-83.09l0,0c-9.17,0.01-16.6,7.42-16.65,16.58h0.08l-0.08,0.08    v8.3h16.66V170.86z"></path>			<rect x="191.16" y="210.42" class="st2" width="16.66" height="23.18"></rect>			<polygon class="st2" points="290.9,275.19 290.9,293.33 307.56,293.32 307.56,275.19    "></polygon>			<path class="st2" d="M290.9,329.7c-0.07,2.95-2.48,5.33-5.45,5.33h5.45v0h-83.09v0h5.46c-3.01,0-5.44-2.43-5.46-5.43v-62.76    h-16.66v68.19l0.08,0.08h-0.08c0.06,9.16,7.49,16.56,16.65,16.58l0,0h83.09l0,0c9.17-0.01,16.6-7.42,16.65-16.58h-0.08l0.08-0.08    v-8.44H290.9V329.7z"></path>			<path class="st2" d="M341.06,198.73c-0.06-9.16-7.49-16.56-16.65-16.58l0,0h-8.52v16.66l3.06,0c2.97,0,5.38,2.38,5.45,5.33    l-0.02,22.43c0,8.2-6.43,14.88-14.52,15.32h-35.46v-26.42h-16.66v26.42H241.1v-26.42h-16.66v26.42H174.5v-37.63    c0.03-2.99,2.46-5.41,5.46-5.41l94.44-0.03v-16.66h-99.9l-0.01,0.01v-0.01c-8.89,0-16.13,6.95-16.63,15.71l-0.02,0.02v0.31    c-0.01,0.22-0.03,0.43-0.03,0.65c0,0.22,0.02,0.43,0.03,0.65v42.4v16.66v36.24h-0.02c0,0.09,0.01,0.18,0.02,0.27v0l0,0    c0.2,9.03,7.57,16.3,16.65,16.3l0,0h8.33V294.7l-2.88,0c-2.96,0-5.35-2.35-5.45-5.28v-30.88h49.94v26.42h16.66v-26.42h16.66    v26.42h16.66v-26.42h35.36c8.12,0.38,14.6,7.04,14.64,15.25v22.5c-0.08,2.95-2.48,5.33-5.45,5.33l-94.51,0v16.66h99.96l0,0    c9.17-0.01,16.6-7.42,16.65-16.58h-0.08l0.08-0.08v-34.83c-0.06-9.12-7.43-16.5-16.54-16.57l-0.01-0.01    c9.12-0.07,16.5-7.45,16.55-16.57v-34.83l-0.08-0.08H341.06z"></path>		</g>	</g></g></svg>